<svg width="518" height="450" viewBox="0 0 518 450" fill="none" xmlns="http://www.w3.org/2000/svg">
<path fill-rule="evenodd" clip-rule="evenodd" d="M125.667 125V258.9C125.667 332.537 185.362 392.233 259 392.233C332.637 392.233 392.333 332.537 392.333 258.9V125H125.667Z" stroke="white" stroke-width="50" stroke-linecap="round" stroke-linejoin="round"/>
<path d="M167.333 125C167.333 138.807 178.526 150 192.333 150C206.14 150 217.333 138.807 217.333 125H167.333ZM300.667 125C300.667 138.807 311.86 150 325.667 150C339.473 150 350.667 138.807 350.667 125H300.667ZM284 258.9C284 245.093 272.807 233.9 259 233.9C245.193 233.9 234 245.093 234 258.9H284ZM234 392.8C234 406.607 245.193 417.8 259 417.8C272.807 417.8 284 406.607 284 392.8H234ZM25.6667 233.9C11.8597 233.9 0.666672 245.093 0.666672 258.9C0.666672 272.707 11.8597 283.9 25.6667 283.9V233.9ZM125.667 283.9C139.474 283.9 150.667 272.707 150.667 258.9C150.667 245.093 139.474 233.9 125.667 233.9V283.9ZM76.735 40.2797C67.0033 30.485 51.1743 30.4337 41.3797 40.165C31.585 49.8967 31.5337 65.7257 41.265 75.5203L76.735 40.2797ZM107.932 142.62C117.663 152.415 133.492 152.466 143.287 142.735C153.082 133.003 153.133 117.174 143.402 107.38L107.932 142.62ZM182.448 371.207C192.191 361.423 192.157 345.593 182.374 335.85C172.59 326.11 156.761 326.143 147.018 335.927L182.448 371.207ZM76.3183 406.927C66.576 416.71 66.6093 432.54 76.393 442.283C86.177 452.023 102.006 451.99 111.748 442.207L76.3183 406.927ZM492.333 283.9C506.14 283.9 517.333 272.707 517.333 258.9C517.333 245.093 506.14 233.9 492.333 233.9V283.9ZM392.333 233.9C378.527 233.9 367.333 245.093 367.333 258.9C367.333 272.707 378.527 283.9 392.333 283.9V233.9ZM476.733 75.5203C486.467 65.7257 486.413 49.8967 476.62 40.165C466.827 30.4337 450.997 30.485 441.267 40.2797L476.733 75.5203ZM374.6 107.38C364.867 117.174 364.92 133.003 374.713 142.735C384.507 152.466 400.337 152.415 410.067 142.62L374.6 107.38ZM370.983 335.927C361.24 326.143 345.41 326.11 335.627 335.85C325.843 345.593 325.81 361.423 335.55 371.207L370.983 335.927ZM406.25 442.207C415.993 451.99 431.823 452.023 441.607 442.283C451.39 432.54 451.423 416.71 441.683 406.927L406.25 442.207ZM217.333 125V91.6667H167.333V125H217.333ZM217.333 91.6667C217.333 68.6547 235.987 50 259 50V0C208.373 0 167.333 41.0407 167.333 91.6667H217.333ZM259 50C282.013 50 300.667 68.6547 300.667 91.6667H350.667C350.667 41.0407 309.627 0 259 0V50ZM300.667 91.6667V125H350.667V91.6667H300.667ZM234 258.9V392.8H284V258.9H234ZM25.6667 283.9H125.667V233.9H25.6667V283.9ZM41.265 75.5203L107.932 142.62L143.402 107.38L76.735 40.2797L41.265 75.5203ZM147.018 335.927L76.3183 406.927L111.748 442.207L182.448 371.207L147.018 335.927ZM492.333 233.9H392.333V283.9H492.333V233.9ZM441.267 40.2797L374.6 107.38L410.067 142.62L476.733 75.5203L441.267 40.2797ZM335.55 371.207L406.25 442.207L441.683 406.927L370.983 335.927L335.55 371.207Z" fill="white"/>
</svg>
