<svg width="45" height="45" viewBox="0 0 45 45" fill="none" xmlns="http://www.w3.org/2000/svg">
<path d="M22.5188 3.78564C12.2156 3.78564 3.78564 12.2156 3.78564 22.5188C3.78564 32.82 12.2156 41.25 22.5188 41.25C32.82 41.25 41.25 32.82 41.25 22.5188C41.25 12.2156 32.9138 3.78564 22.5188 3.78564ZM31.1344 30.8531C30.7613 31.4138 30.105 31.6031 29.5406 31.23C25.1363 28.5113 19.6106 27.9488 13.0538 29.4469C12.4013 29.6381 11.8388 29.1694 11.6513 28.605C11.4619 27.9488 11.9306 27.39 12.495 27.2006C19.6106 25.6069 25.7944 26.265 30.6638 29.2631C31.32 29.5425 31.4138 30.2906 31.1344 30.8531ZM33.3844 25.7025C32.9138 26.3569 32.0719 26.6381 31.4138 26.1694C26.3569 23.0831 18.6788 22.1419 12.7781 24.0169C12.0319 24.2063 11.1844 23.8294 10.9988 23.0831C10.8094 22.3294 11.1863 21.4856 11.9344 21.2981C18.7706 19.2394 27.2025 20.2706 33.0075 23.8313C33.57 24.1106 33.8513 25.0463 33.3844 25.7025ZM33.57 20.4544C27.5756 16.8975 17.5538 16.5225 11.8388 18.3056C11.4042 18.4309 10.938 18.3839 10.5371 18.1744C10.1363 17.9648 9.83157 17.609 9.68627 17.1806C9.55881 16.7455 9.60452 16.2779 9.81384 15.8757C10.0232 15.4735 10.3799 15.1678 10.8094 15.0225C17.46 13.0556 28.4194 13.4288 35.3513 17.5556C36.1931 18.0225 36.4744 19.1475 36.0056 19.9894C35.5369 20.6456 34.4138 20.9231 33.57 20.4544Z" fill="url(#paint0_linear_2_7)"/>
<defs>
<linearGradient id="paint0_linear_2_7" x1="22.5178" y1="3.78564" x2="23" y2="41" gradientUnits="userSpaceOnUse">
<stop stop-color="white"/>
<stop offset="1" stop-color="#707997"/>
</linearGradient>
</defs>
</svg>
