<svg width="800" height="800" viewBox="0 0 800 800" fill="none" xmlns="http://www.w3.org/2000/svg">
<g clip-path="url(#clip0_374_3)">
<path d="M400 0C178.92 0 0 178.903 0 400C0 621.08 178.903 800 400 800C621.08 800 800 621.097 800 400C800 178.92 621.097 0 400 0ZM400 747.827C208.209 747.827 52.1734 591.792 52.1734 400C52.1734 208.208 208.209 52.1734 400 52.1734C591.791 52.1734 747.827 208.209 747.827 400C747.827 591.791 591.791 747.827 400 747.827Z" fill="white"/>
<path d="M608.969 191.031C553.072 135.133 478.858 104.348 400 104.348C385.594 104.348 373.913 116.028 373.913 130.436C373.913 144.844 385.592 156.523 400 156.523C464.922 156.523 526.033 181.881 572.077 227.925C618.12 273.969 643.478 335.078 643.478 400C643.478 414.406 655.158 426.087 669.566 426.087C683.974 426.087 695.653 414.408 695.653 400C695.652 321.142 664.867 246.928 608.969 191.031Z" fill="white"/>
<path d="M400 643.478C335.078 643.478 273.967 618.12 227.923 572.077C181.88 526.033 156.522 464.922 156.522 400C156.522 385.594 144.842 373.912 130.434 373.912C116.027 373.912 104.348 385.594 104.348 400C104.348 478.858 135.133 553.072 191.031 608.969C246.928 664.869 321.142 695.652 400 695.652C414.406 695.652 426.087 683.972 426.087 669.564C426.087 655.156 414.406 643.478 400 643.478Z" fill="white"/>
<path d="M400 208.695C294.516 208.695 208.695 294.514 208.695 400C208.695 505.486 294.514 591.305 400 591.305C505.486 591.305 591.305 505.486 591.305 400C591.305 294.514 505.486 208.695 400 208.695ZM400 539.13C323.283 539.13 260.87 476.716 260.87 400C260.87 323.284 323.284 260.87 400 260.87C476.716 260.87 539.13 323.284 539.13 400C539.13 476.716 476.717 539.13 400 539.13Z" fill="white"/>
<path d="M400 365.217C380.817 365.217 365.217 380.817 365.217 400C365.217 419.183 380.817 434.783 400 434.783C419.183 434.783 434.783 419.183 434.783 400C434.783 380.817 419.183 365.217 400 365.217Z" fill="white"/>
</g>
<defs>
<clipPath id="clip0_374_3">
<rect width="800" height="800" fill="white"/>
</clipPath>
</defs>
</svg>
